{
  "accessors": [
    {
      "bufferView": 2,
      "componentType": 5126,
      "count": 780,
      "max": [
        638.69580078125,
        247.42329406738281,
        446.69009399414062
      ],
      "min": [
        -580.49737548828125,
        -163.68269348144531,
        -301.39202880859375
      ],
      "type": "VEC3"
    },
    {
      "bufferView": 2,
      "byteOffset": 9360,
      "componentType": 5126,
      "count": 780,
      "max": [
        0.988880455493927,
        0.95041996240615845,
        0.99987918138504028
      ],
      "min": [
        -0.98901152610778809,
        -0.9219285249710083,
        -0.9999505877494812
      ],
      "type": "VEC3"
    },
    {
      "bufferView": 1,
      "componentType": 5126,
      "count": 780,
      "max": [
        0.88972306251525879,
        0.98984229564666748
      ],
      "min": [
        0.017357803881168365,
        0.0075203478336334229
      ],
      "type": "VEC2"
    },
    {
      "bufferView": 0,
      "componentType": 5125,
      "count": 3648,
      "max": [
        779
      ],
      "min": [
        0
      ],
      "type": "SCALAR"
    },
    {
      "bufferView": 2,
      "byteOffset": 18720,
      "componentType": 5126,
      "count": 1404,
      "max": [
        582.63519287109375,
        -1011.0743408203125,
        172.49209594726562
      ],
      "min": [
        482.43789672851562,
        -1172.776123046875,
        -187.16361999511719
      ],
      "type": "VEC3"
    },
    {
      "bufferView": 2,
      "byteOffset": 35568,
      "componentType": 5126,
      "count": 1404,
      "max": [
        0.99989908933639526,
        0.99944412708282471,
        0.99921941757202148
      ],
      "min": [
        -0.99977791309356689,
        -0.99862480163574219,
        -0.99887853860855103
      ],
      "type": "VEC3"
    },
    {
      "bufferView": 1,
      "byteOffset": 6240,
      "componentType": 5126,
      "count": 1404,
      "max": [
        1.0000001192092896,
        1.0000003576278687
      ],
      "min": [
        0,
        0
      ],
      "type": "VEC2"
    },
    {
      "bufferView": 0,
      "byteOffset": 14592,
      "componentType": 5125,
      "count": 6960,
      "max": [
        1403
      ],
      "min": [
        0
      ],
      "type": "SCALAR"
    },
    {
      "bufferView": 2,
      "byteOffset": 52416,
      "componentType": 5126,
      "count": 1404,
      "max": [
        -5.3370294570922852,
        2.0054266452789307,
        -10.767073631286621
      ],
      "min": [
        -6.7192635536193848,
        -1.6165100336074829,
        -12.208754539489746
      ],
      "type": "VEC3"
    },
    {
      "bufferView": 2,
      "byteOffset": 69264,
      "componentType": 5126,
      "count": 1404,
      "max": [
        0.99359411001205444,
        0.99948513507843018,
        0.99891412258148193
      ],
      "min": [
        -0.9986724853515625,
        -0.99980181455612183,
        -0.99909991025924683
      ],
      "type": "VEC3"
    },
    {
      "bufferView": 1,
      "byteOffset": 17472,
      "componentType": 5126,
      "count": 1404,
      "max": [
        1.0000001192092896,
        1.0000003576278687
      ],
      "min": [
        0,
        0
      ],
      "type": "VEC2"
    },
    {
      "bufferView": 0,
      "byteOffset": 42432,
      "componentType": 5125,
      "count": 6960,
      "max": [
        1403
      ],
      "min": [
        0
      ],
      "type": "SCALAR"
    },
    {
      "bufferView": 2,
      "byteOffset": 86112,
      "componentType": 5126,
      "count": 801,
      "max": [
        718.85235595703125,
        15.494702339172363,
        241.90669250488281
      ],
      "min": [
        -711.411865234375,
        -1543.5653076171875,
        -169.98417663574219
      ],
      "type": "VEC3"
    },
    {
      "bufferView": 2,
      "byteOffset": 95724,
      "componentType": 5126,
      "count": 801,
      "max": [
        0.99949115514755249,
        0.96271103620529175,
        0.99866968393325806
      ],
      "min": [
        -0.97575706243515015,
        -0.98859739303588867,
        -0.79062390327453613
      ],
      "type": "VEC3"
    },
    {
      "bufferView": 3,
      "componentType": 5126,
      "count": 801,
      "max": [
        0.99973380565643311,
        0.99882602691650391,
        0.83690840005874634,
        1
      ],
      "min": [
        -0.99983668327331543,
        -0.99897193908691406,
        -0.76143592596054077,
        -1
      ],
      "type": "VEC4"
    },
    {
      "bufferView": 1,
      "byteOffset": 28704,
      "componentType": 5126,
      "count": 801,
      "max": [
        0.98072117567062378,
        0.69018149375915527
      ],
      "min": [
        0.019278882071375847,
        0.019278882071375847
      ],
      "type": "VEC2"
    },
    {
      "bufferView": 1,
      "byteOffset": 35112,
      "componentType": 5126,
      "count": 801,
      "max": [
        0.98072117567062378,
        0.69018149375915527
      ],
      "min": [
        0.019278882071375847,
        0.019278882071375847
      ],
      "type": "VEC2"
    },
    {
      "bufferView": 0,
      "byteOffset": 70272,
      "componentType": 5125,
      "count": 3726,
      "max": [
        800
      ],
      "min": [
        0
      ],
      "type": "SCALAR"
    },
    {
      "bufferView": 2,
      "byteOffset": 105336,
      "componentType": 5126,
      "count": 478,
      "max": [
        2.4616479873657227,
        0.40695667266845703,
        104.25743865966797
      ],
      "min": [
        -164.683837890625,
        -135.298095703125,
        -5.8653593063354492
      ],
      "type": "VEC3"
    },
    {
      "bufferView": 2,
      "byteOffset": 111072,
      "componentType": 5126,
      "count": 478,
      "max": [
        0.99346494674682617,
        0.96476936340332031,
        0.99847567081451416
      ],
      "min": [
        -0.93824535608291626,
        -0.99948441982269287,
        -0.99963188171386719
      ],
      "type": "VEC3"
    },
    {
      "bufferView": 1,
      "byteOffset": 41520,
      "componentType": 5126,
      "count": 478,
      "max": [
        0,
        0
      ],
      "min": [
        0,
        0
      ],
      "type": "VEC2"
    },
    {
      "bufferView": 0,
      "byteOffset": 85176,
      "componentType": 5125,
      "count": 2124,
      "max": [
        477
      ],
      "min": [
        0
      ],
      "type": "SCALAR"
    },
    {
      "bufferView": 2,
      "byteOffset": 116808,
      "componentType": 5126,
      "count": 1026,
      "max": [
        66.397705078125,
        31.705299377441406,
        32.253200531005859
      ],
      "min": [
        -62.716400146484375,
        -46.805702209472656,
        -12.880399703979492
      ],
      "type": "VEC3"
    },
    {
      "bufferView": 2,
      "byteOffset": 129120,
      "componentType": 5126,
      "count": 1026,
      "max": [
        0.96152657270431519,
        0.99811935424804688,
        0.90383970737457275
      ],
      "min": [
        -0.96440666913986206,
        -0.99904888868331909,
        -0.87079501152038574
      ],
      "type": "VEC3"
    },
    {
      "bufferView": 1,
      "byteOffset": 45344,
      "componentType": 5126,
      "count": 1026,
      "max": [
        0.99146699905395508,
        0.99079799652099609
      ],
      "min": [
        0.0085330000147223473,
        0.0085330000147223473
      ],
      "type": "VEC2"
    },
    {
      "bufferView": 0,
      "byteOffset": 93672,
      "componentType": 5125,
      "count": 5016,
      "max": [
        1025
      ],
      "min": [
        0
      ],
      "type": "SCALAR"
    },
    {
      "bufferView": 2,
      "byteOffset": 141432,
      "componentType": 5126,
      "count": 279,
      "max": [
        166.17349243164062,
        0.12884406745433807,
        200.06637573242188
      ],
      "min": [
        -112.61033630371094,
        -151.97979736328125,
        -200.49993896484375
      ],
      "type": "VEC3"
    },
    {
      "bufferView": 2,
      "byteOffset": 144780,
      "componentType": 5126,
      "count": 279,
      "max": [
        0.27919137477874756,
        0.99999988079071045,
        0.94267988204956055
      ],
      "min": [
        -0.039247378706932068,
        0.32490772008895874,
        -0.94334232807159424
      ],
      "type": "VEC3"
    },
    {
      "bufferView": 1,
      "byteOffset": 53552,
      "componentType": 5126,
      "count": 279,
      "max": [
        0.99658918380737305,
        0.75666278600692749
      ],
      "min": [
        0.0032552704215049744,
        0.23841564357280731
      ],
      "type": "VEC2"
    },
    {
      "bufferView": 1,
      "byteOffset": 55784,
      "componentType": 5126,
      "count": 279,
      "max": [
        0.99658918380737305,
        0.75666278600692749
      ],
      "min": [
        0.0032552704215049744,
        0.23841564357280731
      ],
      "type": "VEC2"
    },
    {
      "bufferView": 0,
      "byteOffset": 113736,
      "componentType": 5125,
      "count": 1440,
      "max": [
        278
      ],
      "min": [
        0
      ],
      "type": "SCALAR"
    }
  ],
  "asset": {
    "extras": {
      "author": "Kabaq Augmented Reality Food (https://sketchfab.com/kabaq)",
      "license": "COPYRIGHT TO Kabaq Augmented Reality Food",
      "source": "https://sketchfab.com/3d-models/goggle-color-3-fbx-collection-40439196cea74d4381fa8b1243792d2d",
      "title": "Goggle Color 3 Fbx Collection"
    },
    "generator": "Sketchfab-8.9.0",
    "version": "2.0"
  },
  "bufferViews": [
    {
      "buffer": 0,
      "byteLength": 119496,
      "byteOffset": 0,
      "name": "floatBufferViews",
      "target": 34963
    },
    {
      "buffer": 0,
      "byteLength": 58016,
      "byteOffset": 119496,
      "byteStride": 8,
      "name": "floatBufferViews",
      "target": 34962
    },
    {
      "buffer": 0,
      "byteLength": 148128,
      "byteOffset": 177512,
      "byteStride": 12,
      "name": "floatBufferViews",
      "target": 34962
    },
    {
      "buffer": 0,
      "byteLength": 12816,
      "byteOffset": 325640,
      "byteStride": 16,
      "name": "floatBufferViews",
      "target": 34962
    }
  ],
  "buffers": [
    {
      "byteLength": 338456,
      "uri": "scene.bin"
    }
  ],
  "images": [
    {
      "uri": "textures/Sponge_baseColor.jpeg"
    },
    {
      "uri": "textures/Straps_baseColor.jpeg"
    },
    {
      "uri": "textures/Straps_normal.png"
    },
    {
      "uri": "textures/Goggle_MAP_baseColor.jpeg"
    },
    {
      "uri": "textures/screen_baseColor.png"
    },
    {
      "uri": "textures/screen_metallicRoughness.png"
    }
  ],
  "materials": [
    {
      "doubleSided": true,
      "emissiveFactor": [
        0,
        0,
        0
      ],
      "name": "Sponge",
      "pbrMetallicRoughness": {
        "baseColorFactor": [
          1,
          1,
          1,
          1
        ],
        "baseColorTexture": {
          "index": 0,
          "texCoord": 0
        },
        "metallicFactor": 0,
        "roughnessFactor": 0.74701778718652956
      }
    },
    {
      "doubleSided": true,
      "emissiveFactor": [
        0,
        0,
        0
      ],
      "name": "Black_Plastic",
      "pbrMetallicRoughness": {
        "baseColorFactor": [
          0.016370699999999998,
          0.016370699999999998,
          0.016370699999999998,
          1
        ],
        "metallicFactor": 0,
        "roughnessFactor": 0.14987376819957388
      }
    },
    {
      "doubleSided": true,
      "emissiveFactor": [
        0,
        0,
        0
      ],
      "name": "Straps",
      "normalTexture": {
        "index": 2,
        "scale": 1,
        "texCoord": 0
      },
      "pbrMetallicRoughness": {
        "baseColorFactor": [
          1,
          1,
          1,
          1
        ],
        "baseColorTexture": {
          "index": 1,
          "texCoord": 0
        },
        "metallicFactor": 0,
        "roughnessFactor": 1
      }
    },
    {
      "doubleSided": true,
      "emissiveFactor": [
        0,
        0,
        0
      ],
      "name": "Black",
      "pbrMetallicRoughness": {
        "baseColorFactor": [
          0,
          0,
          0,
          1
        ],
        "metallicFactor": 0,
        "roughnessFactor": 1
      }
    },
    {
      "doubleSided": true,
      "emissiveFactor": [
        0,
        0,
        0
      ],
      "name": "Goggle_MAP",
      "pbrMetallicRoughness": {
        "baseColorFactor": [
          1,
          1,
          1,
          1
        ],
        "baseColorTexture": {
          "index": 3,
          "texCoord": 0
        },
        "metallicFactor": 0,
        "roughnessFactor": 1
      }
    },
    {
      "alphaMode": "BLEND",
      "doubleSided": true,
      "emissiveFactor": [
        0,
        0,
        0
      ],
      "name": "screen",
      "pbrMetallicRoughness": {
        "baseColorFactor": [
          1,
          1,
          1,
          1
        ],
        "baseColorTexture": {
          "index": 4,
          "texCoord": 0
        },
        "metallicFactor": 1,
        "metallicRoughnessTexture": {
          "index": 5,
          "texCoord": 0
        },
        "roughnessFactor": 1
      }
    }
  ],
  "meshes": [
    {
      "name": "Sponge_Sponge_0",
      "primitives": [
        {
          "attributes": {
            "NORMAL": 1,
            "POSITION": 0,
            "TEXCOORD_0": 2
          },
          "indices": 3,
          "material": 0,
          "mode": 4
        }
      ]
    },
    {
      "name": "Plastic1_Black_Plastic_0",
      "primitives": [
        {
          "attributes": {
            "NORMAL": 5,
            "POSITION": 4,
            "TEXCOORD_0": 6
          },
          "indices": 7,
          "material": 1,
          "mode": 4
        }
      ]
    },
    {
      "name": "Plastic2_Black_Plastic_0",
      "primitives": [
        {
          "attributes": {
            "NORMAL": 9,
            "POSITION": 8,
            "TEXCOORD_0": 10
          },
          "indices": 11,
          "material": 1,
          "mode": 4
        }
      ]
    },
    {
      "name": "StrapL_Straps_0",
      "primitives": [
        {
          "attributes": {
            "NORMAL": 13,
            "POSITION": 12,
            "TANGENT": 14,
            "TEXCOORD_0": 15,
            "TEXCOORD_1": 16
          },
          "indices": 17,
          "material": 2,
          "mode": 4
        }
      ]
    },
    {
      "name": "Holes_Black_0",
      "primitives": [
        {
          "attributes": {
            "NORMAL": 19,
            "POSITION": 18,
            "TEXCOORD_0": 20
          },
          "indices": 21,
          "material": 3,
          "mode": 4
        }
      ]
    },
    {
      "name": "Top_Goggle_MAP_0",
      "primitives": [
        {
          "attributes": {
            "NORMAL": 23,
            "POSITION": 22,
            "TEXCOORD_0": 24
          },
          "indices": 25,
          "material": 4,
          "mode": 4
        }
      ]
    },
    {
      "name": "April's Screen_screen_0",
      "primitives": [
        {
          "attributes": {
            "NORMAL": 27,
            "POSITION": 26,
            "TEXCOORD_0": 28,
            "TEXCOORD_1": 29
          },
          "indices": 30,
          "material": 5,
          "mode": 4
        }
      ]
    }
  ],
  "nodes": [
    {
      "children": [
        1
      ],
      "name": "RootNode (gltf orientation matrix)",
      "rotation": [
        -0.70710678118654746,
        -0,
        -0,
        0.70710678118654757
      ]
    },
    {
      "children": [
        2
      ],
      "name": "RootNode (model correction matrix)"
    },
    {
      "children": [
        3
      ],
      "matrix": [
        1,
        0,
        0,
        0,
        0,
        0,
        1,
        0,
        0,
        -1,
        0,
        0,
        0,
        0,
        0,
        1
      ],
      "name": "885af31493c24758a7fe1f0b5ed7a532.fbx"
    },
    {
      "children": [
        4,
        6,
        8,
        10,
        12,
        14,
        16
      ],
      "name": "RootNode"
    },
    {
      "children": [
        5
      ],
      "matrix": [
        0.0099918753548358594,
        -2.8114852529168211e-05,
        -0.00040203479717896038,
        0,
        0.00040203700115745271,
        2.1896925501093292e-07,
        0.0099919148180618762,
        0,
        -2.8083318461090393e-05,
        -0.0099999602517595754,
        1.3491124802975403e-06,
        0,
        -0.10271376371383667,
        0,
        0.17118959128856659,
        1
      ],
      "name": "Sponge"
    },
    {
      "mesh": 0,
      "name": "Sponge_Sponge_0"
    },
    {
      "children": [
        7
      ],
      "matrix": [
        0.0099999997764825821,
        0,
        0,
        0,
        0,
        -1.6292067575027046e-09,
        0.0099999997764824503,
        0,
        0,
        -0.0099999997764824503,
        -1.6292067575027046e-09,
        0,
        0.50774616003036499,
        0,
        -0.50774616003036499,
        1
      ],
      "name": "Plastic1"
    },
    {
      "mesh": 1,
      "name": "Plastic1_Black_Plastic_0"
    },
    {
      "children": [
        9
      ],
      "matrix": [
        1,
        0,
        0,
        0,
        0,
        1,
        0,
        0,
        0,
        0,
        1,
        0,
        0.17065487802028656,
        -0.1437717080116272,
        0.051224544644355774,
        1
      ],
      "name": "Plastic2"
    },
    {
      "mesh": 2,
      "name": "Plastic2_Black_Plastic_0"
    },
    {
      "children": [
        11
      ],
      "matrix": [
        0.0099999997764825821,
        0,
        0,
        0,
        0,
        -1.6292067575027046e-09,
        0.0099999997764824503,
        0,
        0,
        -0.0099999997764824503,
        -1.6292067575027046e-09,
        0,
        0,
        0,
        0,
        1
      ],
      "name": "StrapL"
    },
    {
      "mesh": 3,
      "name": "StrapL_Straps_0"
    },
    {
      "children": [
        13
      ],
      "matrix": [
        0.0099948357844968933,
        -2.2411766956371848e-05,
        -0.0003205187308781366,
        0,
        0.00032012421811738648,
        -0.00015851421172267491,
        0.0099936174261029409,
        0,
        -2.7478140491429844e-05,
        -0.009998717310998724,
        -0.00015771490015556005,
        0,
        -3.9084088802337646,
        2.1173787117004395,
        2.2024776935577393,
        1
      ],
      "name": "Holes"
    },
    {
      "mesh": 4,
      "name": "Holes_Black_0"
    },
    {
      "children": [
        15
      ],
      "matrix": [
        0.099999912083148956,
        0,
        0,
        0,
        0,
        0.10000000149011612,
        0,
        0,
        0,
        0,
        0.10000000149011612,
        0,
        0,
        0,
        0,
        1
      ],
      "name": "Top"
    },
    {
      "mesh": 5,
      "name": "Top_Goggle_MAP_0"
    },
    {
      "children": [
        17
      ],
      "matrix": [
        -1.2194094557085767e-09,
        -0.027896835459964565,
        0.00017073778064416686,
        0,
        0.0005600441930679247,
        0.00014066875154280766,
        0.022983862647541462,
        0,
        -0.032012329937480044,
        4.7753176196863359e-06,
        0.00078001021956202875,
        0,
        0.30774524807929993,
        -0.017730431631207466,
        3.1740181446075439,
        1
      ],
      "name": "April's Screen"
    },
    {
      "mesh": 6,
      "name": "April's Screen_screen_0"
    }
  ],
  "samplers": [
    {
      "magFilter": 9729,
      "minFilter": 9987,
      "wrapS": 10497,
      "wrapT": 10497
    }
  ],
  "scene": 0,
  "scenes": [
    {
      "name": "OSG_Scene",
      "nodes": [
        0
      ]
    }
  ],
  "textures": [
    {
      "sampler": 0,
      "source": 0
    },
    {
      "sampler": 0,
      "source": 1
    },
    {
      "sampler": 0,
      "source": 2
    },
    {
      "sampler": 0,
      "source": 3
    },
    {
      "sampler": 0,
      "source": 4
    },
    {
      "sampler": 0,
      "source": 5
    }
  ]
}

